<svg xmlns="http://www.w3.org/2000/svg" width="59" height="58" viewBox="0 0 59 58" fill="none"><rect width="59" height="58" rx="9" fill="url(#paint0_linear_210_11)"></rect><g clip-path="url(#clip0_210_11)"><path d="M47.2357 27.3672C45.5328 25.6051 43.2819 24.5601 40.8674 24.4031V20.2266L40.855 19.6368H40.8367C40.6588 17.6244 39.6511 15.7709 38.0397 14.5112C37.0215 13.7151 35.8065 13.212 34.5254 13.0551C32.2751 12.7785 30.0726 13.5365 28.4821 15.1332L12.124 31.5628C10.5336 33.1602 9.78023 35.3736 10.0555 37.6362C10.2132 38.9275 10.718 40.1517 11.5158 41.1757C12.914 42.97 15.0047 43.9999 17.253 43.9999C19.1907 43.9999 21.0126 43.2419 22.3827 41.866L35.4749 28.7163C36.3028 27.9912 37.2844 27.4631 38.336 27.1768V40.1248C38.336 42.1444 39.9663 43.7818 41.9772 43.7818C42.1427 43.7818 42.3048 43.77 42.4644 43.7483C42.8332 43.6616 43.1955 43.5526 43.5506 43.4239C44.9272 42.9227 46.1854 42.109 47.235 41.0226C49.0177 39.1777 50 36.7535 50 34.1953C50 31.6371 49.0184 29.2122 47.235 27.3679L47.2357 27.3672ZM37.9841 24.6455C36.4238 25.0153 34.9615 25.7785 33.755 26.8523C33.4614 27.1137 33.1854 27.3902 32.9336 27.6753L20.5934 40.069C19.6105 41.0561 18.2496 41.5553 16.8593 41.4397C15.4716 41.3241 14.2056 40.5964 13.3862 39.4431C12.948 38.8263 12.6655 38.1012 12.5694 37.3446C12.381 35.8589 12.8708 34.4061 13.9126 33.3592L30.2714 16.9308C30.4388 16.7633 30.618 16.607 30.805 16.4678C30.9286 16.3751 31.0581 16.2885 31.1895 16.209C31.2556 16.1689 31.3223 16.1315 31.3896 16.0947C32.0737 15.7269 32.8205 15.541 33.6111 15.541C33.6654 15.541 33.7203 15.5417 33.7746 15.5436C34.9138 15.5817 36 16.033 36.8332 16.8145C37.8023 17.7242 38.3366 18.9563 38.3366 20.2857C38.3366 20.3001 38.3366 20.3126 38.3379 20.3238V24.5686C38.2209 24.5923 38.1032 24.6179 37.9854 24.6455H37.9841ZM45.4981 39.1935C44.6728 40.0716 43.6291 40.7415 42.45 41.1198C42.3572 41.1494 42.2643 41.1783 42.1701 41.2039C42.1603 41.2072 42.1505 41.2092 42.1413 41.2118C42.1198 41.2177 42.0975 41.2236 42.076 41.2282C42.0093 41.2427 41.9406 41.2505 41.87 41.2505C41.3167 41.2505 40.8674 40.8 40.8674 40.2437V26.9522C41.3396 26.9942 41.8065 27.0822 42.2591 27.2162C45.3268 28.1206 47.4698 30.9908 47.4698 34.1953C47.4698 36.1322 46.7236 37.891 45.4988 39.1941L45.4981 39.1935Z" fill="white"></path><path d="M42.1414 41.2119C42.1198 41.2178 42.0976 41.2237 42.076 41.2283" stroke="white" stroke-linecap="round" stroke-linejoin="round"></path></g><defs><linearGradient id="paint0_linear_210_11" x1="7.77507e-09" y1="29" x2="59.8857" y2="29.901" gradientUnits="userSpaceOnUse"><stop stop-color="#EB5D36"></stop><stop offset="1" stop-color="#FF8F4E"></stop></linearGradient><clipPath id="clip0_210_11"><rect width="40" height="31" fill="white" transform="translate(10 13)"></rect></clipPath></defs></svg>